# xmcd
#
# Track frame offsets: 
#        150
#        13682
#        25267
#        38344
#        52449
#        67291
#        87353
#        96368
#        108602
#        119687
#        128705
#
# Disc length: 2068 seconds
#
# Revision: 0
# Processed by: cddbd v1.5.2PL0 Copyright (c) Steve Scherf et al.
# Submitted via: ExactAudioCopyFreeDBPlugin 1.0
#
DISCID=9f08120b
DTITLE=Various Artist - Roots Of Blues [CD1]
DYEAR=2017
DGENRE=Blues
TTITLE0=Red Foley - Smoke On The Water
TTITLE1=John Lee Hooker - Boom Boom
TTITLE2=Muddy Waters - Got My Mojo Workin'
TTITLE3=Howlin' Wolf - Smokestack Lightning
TTITLE4=Mississippi John Hurt - Candy Man
TTITLE5=Memphis Slim - Beer Drinkin' Woman
TTITLE6=Ray Charles - Hit The Road Jack
TTITLE7=Robert Johnson - Cross Road Blues
TTITLE8=Elmore James - No Love In My Heart For You
TTITLE9=B.B. King - My Baby's Gone
TTITLE10=Buddy Guy - Five Long Years
EXTD=
EXTT0=
EXTT1=
EXTT2=
EXTT3=
EXTT4=
EXTT5=
EXTT6=
EXTT7=
EXTT8=
EXTT9=
EXTT10=
PLAYORDER=
